DataType=double
version=3
OpenSimVersion=4.5-2024-01-10-34fd6af
endheader
time	ground_force_2_vx	ground_force_2_vy	ground_force_2_vz	ground_force_2_px	ground_force_2_py	ground_force_2_pz	ground_moment_2_mx	ground_moment_2_my	ground_moment_2_mz	ground_force_1_vx	ground_force_1_vy	ground_force_1_vz	ground_force_1_px	ground_force_1_py	ground_force_1_pz	ground_moment_1_mx	ground_moment_1_my	ground_moment_1_mz
38.3	4.592926033105089	34.09996539462088	5.470713707068896	1.342794453931927	0.01929718473203197	0.586085509008765	1.262269816748304	0.3271521875874773	-4.192729171032846	73.26816550166193	747.0169861458369	81.20124927448218	0.8809337383482072	0.01929718473203197	0.3400465655743879	4.37634739350182	0.7981489734065708	23.22701944945063
38.31	1.227197379398119	85.89328008594623	7.469650867358496	1.339344510611672	0.01929718473203197	0.5846780520350694	1.851660478010353	0.677529009510345	-8.929310787681766	75.99685932016628	736.6749819518931	81.09222972554866	0.8734669112703433	0.01929718473203197	0.339913092301007	5.327311730606638	0.4370555174478283	25.44380910097653
38.32	-3.058202436263304	139.708066753046	8.749193704435662	1.335611777488879	0.01929718473203197	0.5833104786158926	2.423488719371018	1.007074296284228	-13.62594122433338	78.39501053183413	723.467643774471	80.59695320165474	0.8659943034242267	0.01929718473203197	0.3397753686564727	6.178677328605392	0.08037223900851487	27.48821347779947
38.33	-8.623481910036652	195.6120464468877	8.925788134673184	1.331492547701536	0.01929718473203197	0.5820328924005532	2.958625365638378	1.301981007948028	-18.17491356339345	80.23342956807879	706.0547248478453	79.50654107400155	0.8586585835216146	0.01929718473203197	0.3396403176668588	6.861919972291117	-0.258422205649383	29.21717811213862
38.34	-15.64347418774026	253.2063814225452	7.668600767032189	1.326910426791408	0.01929718473203197	0.5808954579292511	3.438747399330265	1.546806616761958	-22.43817483925123	81.27177406528133	683.1728650861007	77.63887795231682	0.8515845108840776	0.01929718473203197	0.3395188414948056	7.330457989124577	-0.5670982989015882	30.49683336128757
38.35	-24.06084028271722	311.5562356604838	4.753511446166513	1.321825735238956	0.01929718473203197	0.5799448475660419	3.848748962129361	1.726412798466758	-26.26337521478925	81.25101223309075	653.8035905039043	74.86189187631399	0.8448797504790342	0.01929718473203197	0.339426747853353	7.561137716399047	-0.837865967263117	31.20881643050307
38.36	-33.58363376934314	369.2963170822952	0.1167545890012534	1.316234743288636	0.01929718473203197	0.5792195846760209	4.179294332386099	1.829748549802311	-29.51423052047447	79.92712257807598	617.4061189528927	71.1388467712364	0.838636424269265	0.01929718473203197	0.3393850755960948	7.550681515722127	-1.066442210620865	31.25362324890304
38.37	-43.72379683899162	424.8676705461122	-6.111299037126702	1.310163261405851	0.01929718473203197	0.5787454724807408	4.428573591372081	1.854573278656621	-32.09927794288589	77.128413883517	574.0718949821497	66.53790746753542	0.8329330008111504	0.01929718473203197	0.3394194491816143	7.312737183887657	-1.24943287448527	30.56147646139614
38.38	-53.86907244312015	476.8092753478779	-13.61231223131762	1.303657910956235	0.01929718473203197	0.5785322404640448	4.602547386895203	1.81069510049592	-33.98674395134535	72.78161703125315	524.5019138204327	61.18790787005562	0.8278365277941785	0.01929718473203197	0.3395582610243927	6.876675703423208	-1.383250351967678	29.11159850035563
38.39	-63.37386525328018	524.0023005263903	-21.92870609987742	1.296777318792064	0.01929718473203197	0.5785722214277959	4.713252566017375	1.719205246071524	-35.20291538882326	66.91735668074979	469.8688181804723	55.24201066413874	0.8234053761890319	0.01929718473203197	0.3398297263752755	6.284331799081192	-1.465123200959105	26.94744979206116
38.4	-71.65320134999612	565.7975834384886	-30.54291254067841	1.289584568755766	0.01929718473203197	0.5788413714217422	4.775499631303792	1.607550388487301	-35.81790741783011	59.69127983648131	411.6764818662484	48.88707551057232	0.8196925902634578	0.01929718473203197	0.3402581338081409	5.583257938068638	-1.494722179413656	24.17826425519665
38.41	-78.26336017450372	602.0204841494467	-38.96540400234755	1.282141518204418	0.01929718473203197	0.5793023978563027	4.803043812423863	1.502882068013348	-35.9250336356402	51.39439638780215	351.6680972067711	42.35773224357409	0.8167496878483562	0.01929718473203197	0.3408598609491392	4.820066483216863	-1.474330883908784	20.96800254169183
38.42	-82.95119381501432	632.8792108561975	-46.80326682669218	1.274505053953511	0.01929718473203197	0.5799093161071625	4.805606644084697	1.426480887237153	-35.62057065744099	42.41518059429337	291.7614918886393	35.90659691376728	0.8146304464539093	0.01929718473203197	0.3416398687835565	4.0367423568365	-1.407157772858102	17.51633041425222
38.43	-85.66231174131816	658.8160275787014	-53.79084706513034	1.266725020524464	0.01929718473203197	0.5806125222450327	4.787672521574204	1.390778114745102	-34.98891403150653	33.1863755324452	233.9553898799878	29.74486122565163	0.813393982084601	0.01929718473203197	0.3425893742923543	3.269400696567458	-1.296041723108684	14.03477549386413
